<svg id="Layer_1" data-name="Layer 1" xmlns="http://www.w3.org/2000/svg" viewBox="0 0 1000 1000"><defs><style>.cls-1{fill:#010101;}</style></defs><path class="cls-1" d="M266.64,642.72a22.48,22.48,0,0,1,15.9-6.63H834.47a11.24,11.24,0,0,1,7.95,19.22L733.36,764.37a22.47,22.47,0,0,1-15.9,6.62H165.53c-10.07,0-15.1-12.19-7.95-19.21Z"/><path class="cls-1" d="M266.64,235.63a22.47,22.47,0,0,1,15.9-6.62H834.47c10.07,0,15.1,12.19,7.95,19.21L733.36,357.15a22.47,22.47,0,0,1-15.9,6.62H165.53c-10.07,0-15.1-12.19-7.95-19.21Z"/><path class="cls-1" d="M733.36,437.85a22.48,22.48,0,0,0-15.9-6.63H165.53c-10.07,0-15.1,12.2-7.95,19.22L266.64,559.37a22.47,22.47,0,0,0,15.9,6.62H834.47c10.07,0,15.1-12.19,7.95-19.21Z"/></svg>